<svg id="Layer_1" data-name="Layer 1" xmlns="http://www.w3.org/2000/svg" xmlns:xlink="http://www.w3.org/1999/xlink" viewBox="0 0 2078.56 888.99"><defs><clipPath id="clip-path" transform="translate(-565.25 -645.46)"><path d="M2280.47,865.42h18.39a20.89,20.89,0,0,1,20.89,20.89v287.39a0,0,0,0,1,0,0h-60.17a0,0,0,0,1,0,0V886.31A20.89,20.89,0,0,1,2280.47,865.42Z" style="fill:#ea4230"/></clipPath><clipPath id="clip-path-2" transform="translate(-565.25 -645.46)"><circle cx="2289.65" cy="931.5" r="44.72" transform="translate(-182.18 947.12) rotate(-22.5)" style="fill:#fff"/></clipPath></defs><ellipse cx="1254.88" cy="548.37" rx="823.68" ry="29.26" style="fill:#cfcfe5"/><path d="M1679.71,980.21c0,240.28-134.69,219.64-300.83,219.64S1078,1211.8,1078,980.21c0-166.15,134.69-260.5,300.84-260.5S1679.71,814.06,1679.71,980.21Z" transform="translate(-565.25 -645.46)" style="fill:#1a272e"/><path d="M1396.81,742.63s-250.28-22.92-269.71,281.44c0,0-19.57,181.33,251.78,175.78,0,0,231.82,8.87,243.2-141.62C1632.61,918.87,1621.17,757.4,1396.81,742.63Z" transform="translate(-565.25 -645.46)" style="fill:#8d8db1;opacity:0.28"/><circle cx="1378.88" cy="962.27" r="219.64" transform="translate(-841.82 611.4) rotate(-45)" style="fill:#8d8db1"/><circle cx="1378.88" cy="962.27" r="202.29" transform="translate(-841.82 611.4) rotate(-45)" style="fill:#bdbdd8"/><path d="M1378.63,788.47h36.07a7.64,7.64,0,0,1,7.13,10.39l-19.59,50.65-16.49,42.62a7.63,7.63,0,0,1-14.24,0L1355,849.51l-19.59-50.65a7.64,7.64,0,0,1,7.13-10.39Z" transform="translate(-565.25 -645.46)" style="fill:#1a272e"/><path d="M1378.63,1134.55h-36.07a7.65,7.65,0,0,1-7.13-10.4L1355,1073.5l16.49-42.62a7.63,7.63,0,0,1,14.24,0l16.49,42.62,19.59,50.65a7.65,7.65,0,0,1-7.13,10.4Z" transform="translate(-565.25 -645.46)" style="fill:#1a272e"/><path d="M1501,839.15l25.51,25.51a7.63,7.63,0,0,1-2.32,12.38l-49.66,22-41.8,18.49a7.64,7.64,0,0,1-10.07-10.08l18.48-41.79,22-49.67a7.64,7.64,0,0,1,12.38-2.31Z" transform="translate(-565.25 -645.46)" style="fill:#1a272e"/><path d="M1256.27,1083.86l-25.5-25.5a7.64,7.64,0,0,1,2.31-12.39l49.66-22,41.8-18.49a7.64,7.64,0,0,1,10.07,10.08l-18.48,41.79-22,49.67a7.63,7.63,0,0,1-12.38,2.31Z" transform="translate(-565.25 -645.46)" style="fill:#1a272e"/><path d="M1551.67,961.51v36.07a7.64,7.64,0,0,1-10.39,7.12l-50.65-19.59L1448,968.63a7.64,7.64,0,0,1,0-14.25l42.63-16.48,50.65-19.59a7.64,7.64,0,0,1,10.39,7.12Z" transform="translate(-565.25 -645.46)" style="fill:#1a272e"/><path d="M1205.59,961.51V925.43a7.64,7.64,0,0,1,10.39-7.12l50.65,19.59,42.63,16.48a7.64,7.64,0,0,1,0,14.25l-42.63,16.48L1216,1004.7a7.64,7.64,0,0,1-10.39-7.12Z" transform="translate(-565.25 -645.46)" style="fill:#1a272e"/><path d="M1501,1083.86l-25.51,25.51a7.63,7.63,0,0,1-12.38-2.31l-22-49.67-18.48-41.79a7.64,7.64,0,0,1,10.07-10.08l41.8,18.49,49.66,22a7.64,7.64,0,0,1,2.32,12.39Z" transform="translate(-565.25 -645.46)" style="fill:#1a272e"/><path d="M1256.27,839.15l25.51-25.51a7.64,7.64,0,0,1,12.38,2.31l22,49.67,18.48,41.79a7.64,7.64,0,0,1-10.07,10.08L1282.74,899l-49.66-22a7.63,7.63,0,0,1-2.31-12.38Z" transform="translate(-565.25 -645.46)" style="fill:#1a272e"/><circle cx="1378.88" cy="962.27" r="43.4" transform="translate(-439.71 1437.72) rotate(-76.72)" style="fill:#1a272e"/><circle cx="813.62" cy="316.82" r="17.93" style="fill:#fff"/><path d="M1212.72,781.7s-127.21,98.45-104.12,235.19C1108.6,1016.89,1059.32,877.45,1212.72,781.7Z" transform="translate(-565.25 -645.46)" style="fill:#8d8db1;opacity:0.28"/><path d="M1606.44,832.05s47.16,77.77,43.85,213.47C1650.29,1045.52,1673.46,903.2,1606.44,832.05Z" transform="translate(-565.25 -645.46)" style="fill:#8d8db1;opacity:0.28"/><path d="M1965.07,1087.53H1729.59V968.78l243.55-323.32h116.75V966.4h80.68v121.13h-80.68v112.76H1965.07Zm0-246.17-92,125h92Z" transform="translate(-565.25 -645.46)" style="fill:#ea4230"/><path d="M800.73,1087.53H565.25L581.8,968.78,825.35,645.46h100.2V966.4h80.68v121.13H925.55v112.76H800.73Zm0-246.17-92,125h92Z" transform="translate(-565.25 -645.46)" style="fill:#ea4230"/><rect x="1717.38" y="99.7" width="14.05" height="140.61" style="fill:#bdbdd8"/><rect x="1648.87" y="86.92" width="149.03" height="12.78" style="fill:#1a272e"/><rect x="1647.05" y="83.37" width="7.1" height="19.89" rx="1.93" style="fill:#1a272e"/><rect x="1794.35" y="83.37" width="7.1" height="19.89" rx="1.93" style="fill:#1a272e"/><rect x="1707.6" y="84.68" width="33.13" height="17.27" style="fill:#bdbdd8"/><polygon points="1717.38 101.95 1731.43 101.95 1717.38 109.77 1717.38 101.95" style="fill:#1a272e;opacity:0.33"/><path d="M1715.21,220h18.39a20.89,20.89,0,0,1,20.89,20.89V528.23a0,0,0,0,1,0,0h-60.17a0,0,0,0,1,0,0V240.85A20.89,20.89,0,0,1,1715.21,220Z" style="fill:#ea4230"/><g style="clip-path:url(#clip-path)"><rect x="1724.16" y="211.06" width="41.4" height="328.78" style="fill:#c1271b"/></g><path d="M2341.55,1198.23H2238.91a25.86,25.86,0,0,1,25.87-25.86h50.91a25.86,25.86,0,0,1,25.86,25.86Z" transform="translate(-565.25 -645.46)" style="fill:#1a272e"/><rect x="1665.99" y="551.29" width="117.69" height="7.22" rx="1.88" style="fill:#1a272e"/><rect x="1705.41" y="211.06" width="37.99" height="12.34" rx="4.82" style="fill:#1a272e"/><path d="M2274,1036.11h0a6,6,0,0,1-6-6V989.45a6,6,0,0,1,6-6h0a6,6,0,0,1,6,6v40.67A6,6,0,0,1,2274,1036.11Z" transform="translate(-565.25 -645.46)" style="fill:#fff;opacity:0.32"/><path d="M2274,1055.65h0a6,6,0,0,1-6-6v-4.15a6,6,0,0,1,6-6h0a6,6,0,0,1,6,6v4.15A6,6,0,0,1,2274,1055.65Z" transform="translate(-565.25 -645.46)" style="fill:#fff;opacity:0.32"/><circle cx="2289.65" cy="931.5" r="51" transform="translate(438.17 2396.92) rotate(-80.78)" style="fill:#1a272e"/><circle cx="2289.65" cy="931.5" r="44.72" transform="translate(-747.43 301.66) rotate(-22.5)" style="fill:#fff"/><g style="clip-path:url(#clip-path-2)"><path d="M2317.11,892.68s1.64,60.16-54.05,78.25c0,0,40,25.63,71.31-8.72S2317.11,892.68,2317.11,892.68Z" transform="translate(-565.25 -645.46)" style="fill:#bdbdd8"/></g><circle cx="1724.83" cy="286.04" r="7.04" style="fill:#1a272e"/><rect x="1723.57" y="247.22" width="2.53" height="12.1" style="fill:#1a272e"/><rect x="1723.57" y="313.37" width="2.53" height="12.1" style="fill:#1a272e"/><rect x="2321.9" y="925.76" width="2.53" height="12.1" transform="translate(2689.71 -2036.82) rotate(90)" style="fill:#1a272e"/><rect x="2255.74" y="925.76" width="2.53" height="12.1" transform="translate(2623.56 -1970.66) rotate(90)" style="fill:#1a272e"/><rect x="2312.21" y="902.37" width="2.53" height="12.1" transform="translate(754.7 -2015.26) rotate(45)" style="fill:#1a272e"/><rect x="2265.43" y="949.14" width="2.53" height="12.1" transform="translate(774.07 -1968.49) rotate(45)" style="fill:#1a272e"/><rect x="2312.21" y="949.14" width="2.53" height="12.1" transform="translate(4059.52 -650.72) rotate(135)" style="fill:#1a272e"/><rect x="2265.43" y="902.37" width="2.53" height="12.1" transform="translate(3946.59 -697.49) rotate(135)" style="fill:#1a272e"/><polygon points="1741.16 270.02 1725.9 282.02 1724.83 286.35 1729.16 285.28 1741.16 270.02" style="fill:#f1bf46"/><rect x="803.91" y="499.68" width="19.43" height="19.43" style="fill:#1a272e"/><path d="M1985.45,1174.6c-39.44,0-76.69-10.92-113.9-33.4-32.9-19.88-61.7-45.78-92.19-73.2-58.88-53-119.76-107.72-211.58-114.23-49.64-3.52-90.25,9-120.71,37.07-59.83,55.22-61.44,153.37-61.45,154.35l-13.49-.11c0-1.07.31-26.49,8.46-59.43,7.56-30.6,23.64-73.6,57.26-104.67,33.32-30.78,77.35-44.46,130.88-40.67,96.45,6.84,159.08,63.17,219.66,117.65,59,53,114.68,103.15,197.06,103.15,95.75,0,138.77-19.6,173.33-35.36,26.55-12.1,49.49-22.55,86.8-19.63l-1.06,13.46c-33.84-2.65-54.27,6.66-80.14,18.45C2128.63,1154.33,2084.13,1174.6,1985.45,1174.6Z" transform="translate(-565.25 -645.46)" style="fill:#ea4230"/><rect x="1665.5" y="453.1" width="28.59" height="28.59" style="fill:#1a272e"/><rect x="658.4" y="754.12" width="761.76" height="134.87" rx="67.44" style="fill:#ea4230"/><path d="M1342.64,1470.1q-5.51,4.59-15.72,4.59h-13.05v22.54h-13v-62.69h26.92q9.32,0,14.84,4.85t5.54,15Q1348.15,1465.52,1342.64,1470.1Zm-10-22.58a10.57,10.57,0,0,0-7-2.09h-11.8v18.46h11.8a10,10,0,0,0,7-2.25q2.47-2.27,2.48-7.15C1335.13,1451.23,1334.3,1448.9,1332.65,1447.52Z" transform="translate(-565.25 -645.46)" style="fill:#fff"/><path d="M1376,1469a19.24,19.24,0,0,0,4.84-1.07,3.63,3.63,0,0,0,2.61-3.44,4.1,4.1,0,0,0-2-3.94,12.74,12.74,0,0,0-5.89-1.08c-2.9,0-5,.71-6.16,2.13a8.66,8.66,0,0,0-1.73,4.25H1356a17.71,17.71,0,0,1,3.41-10q4.83-6.12,16.58-6.12a29.6,29.6,0,0,1,13.58,3q5.94,3,5.94,11.4v21.26c0,1.48,0,3.26.08,5.36a6.85,6.85,0,0,0,.72,3.23,4.4,4.4,0,0,0,1.79,1.41v1.78h-13.18a13.19,13.19,0,0,1-.77-2.63c-.14-.83-.25-1.76-.34-2.81a24.84,24.84,0,0,1-5.82,4.63,17.5,17.5,0,0,1-8.9,2.26,15.35,15.35,0,0,1-10.45-3.59q-4.14-3.6-4.13-10.19,0-8.55,6.64-12.38,3.64-2.08,10.71-3Zm7.41,5.65a13.9,13.9,0,0,1-2.35,1.17,19.18,19.18,0,0,1-3.26.83l-2.76.51a18.44,18.44,0,0,0-5.57,1.66,5.54,5.54,0,0,0-2.86,5.15q0,3.1,1.75,4.48a6.63,6.63,0,0,0,4.25,1.38,12.66,12.66,0,0,0,7.32-2.29q3.35-2.3,3.48-8.38Z" transform="translate(-565.25 -645.46)" style="fill:#fff"/><path d="M1429.05,1450.83a14.62,14.62,0,0,1,7.14,6.72v-6.68H1448v44q0,9-3,13.53-5.19,7.81-19.9,7.82-8.89,0-14.51-3.49a12.86,12.86,0,0,1-6.21-10.42h13.19a5.47,5.47,0,0,0,1.66,3.07q2,1.65,6.59,1.65c4.36,0,7.29-1.46,8.76-4.38,1-1.87,1.45-5,1.45-9.44v-3a14.79,14.79,0,0,1-3.75,4.46,15.06,15.06,0,0,1-9.4,2.77q-8.92,0-14.26-6.28t-5.34-17q0-10.34,5.14-17.37t14.57-7A15.9,15.9,0,0,1,1429.05,1450.83Zm4.13,33.24q2.92-3.21,2.92-10.23,0-6.58-2.77-10a9.08,9.08,0,0,0-7.44-3.44q-6.35,0-8.76,6a21.21,21.21,0,0,0-1.27,7.86,18.08,18.08,0,0,0,1.35,7.19,8.84,8.84,0,0,0,8.81,5.87A9.32,9.32,0,0,0,1433.18,1484.07Z" transform="translate(-565.25 -645.46)" style="fill:#fff"/><path d="M1489.53,1451.81a18.88,18.88,0,0,1,8,6.86,22.89,22.89,0,0,1,3.7,9.59,60.21,60.21,0,0,1,.39,9.2h-33.76q.29,7,4.85,9.78a12.33,12.33,0,0,0,6.68,1.74,9.42,9.42,0,0,0,9.23-5.31H1501q-.48,4.13-4.49,8.37-6.23,6.76-17.44,6.77a25.22,25.22,0,0,1-16.33-5.71q-7.08-5.7-7.08-18.56,0-12,6.39-18.47t16.58-6.43A26.51,26.51,0,0,1,1489.53,1451.81Zm-18.13,10.47a12.57,12.57,0,0,0-3.23,7.18h20.88q-.33-4.83-3.23-7.32a10.6,10.6,0,0,0-7.19-2.5A9.62,9.62,0,0,0,1471.4,1462.28Z" transform="translate(-565.25 -645.46)" style="fill:#fff"/><path d="M1569.35,1453.53q4.55,3.77,4.55,12.49v31.21h-12.42V1469a13,13,0,0,0-1-5.62q-1.77-3.57-6.76-3.57-6.12,0-8.4,5.23a18.06,18.06,0,0,0-1.18,7.06v25.09h-12.12V1451h11.74v6.76a20.56,20.56,0,0,1,4.4-5.14,15.22,15.22,0,0,1,9.45-2.81Q1564.8,1449.77,1569.35,1453.53Z" transform="translate(-565.25 -645.46)" style="fill:#fff"/><path d="M1623.83,1491.56q-5.86,7.25-17.82,7.25t-17.82-7.25a28.75,28.75,0,0,1,0-34.82q5.86-7.35,17.82-7.35t17.82,7.35a28.75,28.75,0,0,1,0,34.82Zm-9.7-6.7q2.85-3.78,2.85-10.74t-2.85-10.73a10.79,10.79,0,0,0-16.35,0q-2.87,3.77-2.87,10.73t2.87,10.74a10.73,10.73,0,0,0,16.35,0Z" transform="translate(-565.25 -645.46)" style="fill:#fff"/><path d="M1633.61,1459.93v-8.63h6.47v-12.93h12v12.93h7.53v8.63h-7.53v24.5c0,1.9.24,3.08.72,3.55s2,.7,4.43.7c.36,0,.75,0,1.17,0s.81,0,1.21-.06v9.06l-5.74.21q-8.59.3-11.74-3-2-2.09-2-6.42v-28.54Z" transform="translate(-565.25 -645.46)" style="fill:#fff"/><path d="M1710.76,1434l2.55.19V1444c-.68-.09-1.82-.15-3.42-.19s-2.71.31-3.32,1.06a3.85,3.85,0,0,0-.91,2.49v3.91h7.95v8.55h-7.95v37.38h-12v-37.38h-6.8v-8.55h6.63v-3q0-7.44,2.51-10.25,2.64-4.17,12.72-4.16C1709.44,1433.91,1710.14,1433.93,1710.76,1434Z" transform="translate(-565.25 -645.46)" style="fill:#fff"/><path d="M1759.25,1491.56q-5.88,7.25-17.82,7.25t-17.82-7.25a28.75,28.75,0,0,1,0-34.82q5.87-7.35,17.82-7.35t17.82,7.35a28.79,28.79,0,0,1,0,34.82Zm-9.7-6.7q2.85-3.78,2.85-10.74t-2.85-10.73a10.79,10.79,0,0,0-16.35,0q-2.88,3.77-2.88,10.73t2.88,10.74a10.73,10.73,0,0,0,16.35,0Z" transform="translate(-565.25 -645.46)" style="fill:#fff"/><path d="M1785.87,1450.87v28a14.7,14.7,0,0,0,.93,6q1.65,3.52,6.48,3.53c4.11,0,6.94-1.67,8.46-5a18.22,18.22,0,0,0,1.18-7.18v-25.23h12.29v46.36h-11.78v-6.55c-.11.15-.39.57-.84,1.28a8.55,8.55,0,0,1-1.62,1.87,16.88,16.88,0,0,1-5.49,3.49,18.79,18.79,0,0,1-6.21.93q-10.26,0-13.83-7.4-2-4.08-2-12v-28Z" transform="translate(-565.25 -645.46)" style="fill:#fff"/><path d="M1864.38,1453.53q4.55,3.77,4.55,12.49v31.21h-12.42V1469a13,13,0,0,0-1-5.62q-1.77-3.57-6.75-3.57-6.13,0-8.41,5.23a18.24,18.24,0,0,0-1.18,7.06v25.09h-12.12V1451h11.74v6.76a20.56,20.56,0,0,1,4.4-5.14,15.24,15.24,0,0,1,9.45-2.81Q1859.83,1449.77,1864.38,1453.53Z" transform="translate(-565.25 -645.46)" style="fill:#fff"/><path d="M1904.78,1451.62a14.66,14.66,0,0,1,5.32,5.12v-22.11h12.29v62.6h-11.78v-6.42a17.14,17.14,0,0,1-5.91,6,16.67,16.67,0,0,1-8.25,1.87,17.23,17.23,0,0,1-13.68-6.57q-5.55-6.57-5.55-16.87,0-11.87,5.47-18.67a17.79,17.79,0,0,1,14.61-6.8A15,15,0,0,1,1904.78,1451.62Zm3,33a16.87,16.87,0,0,0,2.68-9.91q0-8.51-4.29-12.16a9.29,9.29,0,0,0-6.13-2.21c-3.54,0-6.15,1.34-7.8,4a18.6,18.6,0,0,0-2.49,10q0,6.42,2.53,10.27a8.55,8.55,0,0,0,7.68,3.85A8.93,8.93,0,0,0,1907.76,1484.64Z" transform="translate(-565.25 -645.46)" style="fill:#fff"/></svg>